<mxfile host="Electron" modified="2023-09-29T11:39:43.819Z" agent="Mozilla/5.0 (Windows NT 10.0; Win64; x64) AppleWebKit/537.36 (KHTML, like Gecko) draw.io/21.7.5 Chrome/114.0.5735.289 Electron/25.8.1 Safari/537.36" etag="8Ov9WU9JCamYgx5jhQU1" version="21.7.5" type="device">
  <diagram id="C5RBs43oDa-KdzZeNtuy" name="Page-1">
    <mxGraphModel dx="1168" dy="670" grid="0" gridSize="10" guides="1" tooltips="1" connect="1" arrows="1" fold="1" page="1" pageScale="1" pageWidth="827" pageHeight="1169" math="0" shadow="0">
      <root>
        <mxCell id="WIyWlLk6GJQsqaUBKTNV-0" />
        <mxCell id="WIyWlLk6GJQsqaUBKTNV-1" parent="WIyWlLk6GJQsqaUBKTNV-0" />
        <mxCell id="iOeyGtEsCra8uKwSyC5N-0" value="&lt;br&gt;Animal" style="swimlane;fontStyle=1;align=center;verticalAlign=top;childLayout=stackLayout;horizontal=1;startSize=40;horizontalStack=0;resizeParent=1;resizeParentMax=0;resizeLast=0;collapsible=1;marginBottom=0;whiteSpace=wrap;html=1;strokeColor=#464F55;fontColor=#FFFFFF;fillColor=#2C6879;rounded=1;labelBackgroundColor=none;" vertex="1" parent="WIyWlLk6GJQsqaUBKTNV-1">
          <mxGeometry x="87" y="338" width="160" height="180" as="geometry">
            <mxRectangle x="299" y="276" width="120" height="40" as="alternateBounds" />
          </mxGeometry>
        </mxCell>
        <mxCell id="iOeyGtEsCra8uKwSyC5N-1" value="+ name: str&lt;br&gt;" style="text;strokeColor=none;fillColor=none;align=left;verticalAlign=top;spacingLeft=4;spacingRight=4;overflow=hidden;rotatable=0;points=[[0,0.5],[1,0.5]];portConstraint=eastwest;whiteSpace=wrap;html=1;fontColor=#464F55;rounded=1;labelBackgroundColor=none;" vertex="1" parent="iOeyGtEsCra8uKwSyC5N-0">
          <mxGeometry y="40" width="160" height="67" as="geometry" />
        </mxCell>
        <mxCell id="iOeyGtEsCra8uKwSyC5N-2" value="" style="line;strokeWidth=1;fillColor=none;align=left;verticalAlign=middle;spacingTop=-1;spacingLeft=3;spacingRight=3;rotatable=0;labelPosition=right;points=[];portConstraint=eastwest;strokeColor=#464F55;fontColor=#1A1A1A;rounded=1;labelBackgroundColor=none;" vertex="1" parent="iOeyGtEsCra8uKwSyC5N-0">
          <mxGeometry y="107" width="160" height="8" as="geometry" />
        </mxCell>
        <mxCell id="iOeyGtEsCra8uKwSyC5N-3" value="+ speak(): None&lt;br&gt;+ __str__(): str&lt;br&gt;" style="text;strokeColor=none;fillColor=none;align=left;verticalAlign=top;spacingLeft=4;spacingRight=4;overflow=hidden;rotatable=0;points=[[0,0.5],[1,0.5]];portConstraint=eastwest;whiteSpace=wrap;html=1;fontColor=#464F55;rounded=1;labelBackgroundColor=none;" vertex="1" parent="iOeyGtEsCra8uKwSyC5N-0">
          <mxGeometry y="115" width="160" height="65" as="geometry" />
        </mxCell>
        <mxCell id="iOeyGtEsCra8uKwSyC5N-5" value="Dog" style="swimlane;fontStyle=1;align=center;verticalAlign=top;childLayout=stackLayout;horizontal=1;startSize=28;horizontalStack=0;resizeParent=1;resizeParentMax=0;resizeLast=0;collapsible=1;marginBottom=0;whiteSpace=wrap;html=1;strokeColor=#464F55;fontColor=#FFFFFF;fillColor=#2C6879;rounded=1;labelBackgroundColor=none;" vertex="1" parent="WIyWlLk6GJQsqaUBKTNV-1">
          <mxGeometry x="325" y="339" width="160" height="87" as="geometry">
            <mxRectangle x="299" y="276" width="120" height="40" as="alternateBounds" />
          </mxGeometry>
        </mxCell>
        <mxCell id="iOeyGtEsCra8uKwSyC5N-7" value="" style="line;strokeWidth=1;fillColor=none;align=left;verticalAlign=middle;spacingTop=-1;spacingLeft=3;spacingRight=3;rotatable=0;labelPosition=right;points=[];portConstraint=eastwest;strokeColor=#464F55;fontColor=#1A1A1A;rounded=1;labelBackgroundColor=none;fixDash=0;movable=1;" vertex="1" parent="iOeyGtEsCra8uKwSyC5N-5">
          <mxGeometry y="28" width="160" height="22" as="geometry" />
        </mxCell>
        <mxCell id="iOeyGtEsCra8uKwSyC5N-8" value="+ speak(): None&lt;br&gt;+ __str__(): str&lt;br&gt;" style="text;strokeColor=none;fillColor=none;align=left;verticalAlign=top;spacingLeft=4;spacingRight=4;overflow=hidden;rotatable=0;points=[[0,0.5],[1,0.5]];portConstraint=eastwest;whiteSpace=wrap;html=1;fontColor=#464F55;rounded=1;labelBackgroundColor=none;spacing=2;spacingTop=-7;" vertex="1" parent="iOeyGtEsCra8uKwSyC5N-5">
          <mxGeometry y="50" width="160" height="37" as="geometry" />
        </mxCell>
        <mxCell id="iOeyGtEsCra8uKwSyC5N-9" value="Cat" style="swimlane;fontStyle=1;align=center;verticalAlign=top;childLayout=stackLayout;horizontal=1;startSize=28;horizontalStack=0;resizeParent=1;resizeParentMax=0;resizeLast=0;collapsible=1;marginBottom=0;whiteSpace=wrap;html=1;strokeColor=#464F55;fontColor=#FFFFFF;fillColor=#2C6879;rounded=1;labelBackgroundColor=none;" vertex="1" parent="WIyWlLk6GJQsqaUBKTNV-1">
          <mxGeometry x="325" y="432" width="160" height="87" as="geometry">
            <mxRectangle x="299" y="276" width="120" height="40" as="alternateBounds" />
          </mxGeometry>
        </mxCell>
        <mxCell id="iOeyGtEsCra8uKwSyC5N-10" value="" style="line;strokeWidth=1;fillColor=none;align=left;verticalAlign=middle;spacingTop=-1;spacingLeft=3;spacingRight=3;rotatable=0;labelPosition=right;points=[];portConstraint=eastwest;strokeColor=#464F55;fontColor=#1A1A1A;rounded=1;labelBackgroundColor=none;fixDash=0;movable=1;" vertex="1" parent="iOeyGtEsCra8uKwSyC5N-9">
          <mxGeometry y="28" width="160" height="22" as="geometry" />
        </mxCell>
        <mxCell id="iOeyGtEsCra8uKwSyC5N-11" value="+ speak(): None&lt;br&gt;+ __str__(): str&lt;br&gt;" style="text;strokeColor=none;fillColor=none;align=left;verticalAlign=top;spacingLeft=4;spacingRight=4;overflow=hidden;rotatable=0;points=[[0,0.5],[1,0.5]];portConstraint=eastwest;whiteSpace=wrap;html=1;fontColor=#464F55;rounded=1;labelBackgroundColor=none;spacing=2;spacingTop=-7;" vertex="1" parent="iOeyGtEsCra8uKwSyC5N-9">
          <mxGeometry y="50" width="160" height="37" as="geometry" />
        </mxCell>
        <mxCell id="iOeyGtEsCra8uKwSyC5N-12" style="edgeStyle=orthogonalEdgeStyle;rounded=0;orthogonalLoop=1;jettySize=auto;html=1;entryX=1;entryY=0.438;entryDx=0;entryDy=0;entryPerimeter=0;fontColor=#464F55;strokeColor=#464F55;endArrow=block;endFill=0;" edge="1" parent="WIyWlLk6GJQsqaUBKTNV-1" source="iOeyGtEsCra8uKwSyC5N-8" target="iOeyGtEsCra8uKwSyC5N-1">
          <mxGeometry relative="1" as="geometry" />
        </mxCell>
        <mxCell id="iOeyGtEsCra8uKwSyC5N-13" style="edgeStyle=orthogonalEdgeStyle;rounded=0;orthogonalLoop=1;jettySize=auto;html=1;entryX=1.001;entryY=0.728;entryDx=0;entryDy=0;entryPerimeter=0;strokeColor=#464F55;endArrow=block;endFill=0;" edge="1" parent="WIyWlLk6GJQsqaUBKTNV-1" source="iOeyGtEsCra8uKwSyC5N-11" target="iOeyGtEsCra8uKwSyC5N-3">
          <mxGeometry relative="1" as="geometry" />
        </mxCell>
      </root>
    </mxGraphModel>
  </diagram>
</mxfile>
